<svg xmlns="http://www.w3.org/2000/svg" xmlns:xlink="http://www.w3.org/1999/xlink" width="1089.867" height="822.507" xmlns:v="https://vecta.io/nano"><path d="M933.737 445.567c0 126.51-74.17 238.43-187.87 306.56-72.9 43.69-162.06 69.38-258.33 69.38-128.25 0-226.08-48.47-299.67-122.72-67.83-68.42-115.06-158.75-146.53-253.22-140.49-421.79 94.2-536.86 446.2-375.94 224.12 102.47 446.2 168.32 446.2 375.94z" fill="#206bc4"/><path d="M745.867 224.757v528.37c-72.9 43.69-162.06 69.38-258.33 69.38-128.25 0-226.08-48.47-299.67-122.72v-475.03z" fill="#f2f2f2"/><g fill="#3f3d56"><use xlink:href="#B"/><use xlink:href="#B" y="76"/><use xlink:href="#B" y="-69"/><path d="M237.963 282.749c7.258-3.216 15.573-2.655 23.106-.79 8.122 2.01 15.771 5.507 23.767 7.924a82.27 82.27 0 0 0 43.978.834c8.143-2.077 15.913-5.407 23.032-9.872 1.631-1.025.127-3.622-1.514-2.59-12.69 7.924-27.359 12.106-42.32 12.065-7.503-.011-14.965-1.11-22.154-3.262-7.937-2.38-15.525-5.835-23.566-7.884-8.519-2.171-17.655-2.642-25.844.986-1.762.78-.237 3.366 1.514 2.59z"/><circle cx="460.867" cy="696.757" r="46"/></g><g fill="#f2f2f2"><circle cx="212.867" cy="105.757" r="25"/><circle cx="431.867" cy="176.757" r="17"/><circle cx="155.867" cy="339.757" r="17"/></g><g fill="#3f3d56"><path d="M85.547 213.464h1.875v335.244h-1.875z"/><ellipse cx="86.846" cy="436.554" rx="36.557" ry="83.424"/><ellipse cx="86.846" cy="246.272" rx="36.557" ry="83.424"/><path d="M87.744 178.114l-1.796-.538c.113-.379 11.135-38.147-6.962-62.461-10.221-13.732-27.76-20.695-52.131-20.695v-1.875c24.999 0 43.046 7.219 53.64 21.457 18.657 25.076 7.365 63.724 7.249 64.111z"/><circle cx="26.855" cy="93.483" r="23.434"/></g><path d="M770.74 624.677l-17.533 161.299h120.974l5.26-12.273 7.013 12.273h113.961s-8.766-166.559-24.546-171.819-205.13 10.52-205.13 10.52z" fill="#2f2e41"/><g fill="#ffb8b8"><circle cx="874.182" cy="209.157" r="61.364"/><path d="M839.117 247.728s5.26 56.104 0 59.611 84.156 1.753 84.156 1.753-12.273-50.844 0-75.39z"/></g><path d="M870.675 295.066s45.113 7.026 48.855-7.006l23.028 31.552 1.753 315.585s-187.598 22.792-194.611-14.026 71.883-327.858 71.883-327.858l19.862-1.286 29.229 3.039z" fill="#d0cde1"/><path d="M841.148 277.629l-30.083 10.424-85.909 21.039 3.506 210.39s-73.637 210.39-40.325 226.169 80.65-21.039 94.676-47.338 63.117-390.975 63.117-397.988-4.982-22.697-4.982-22.697zm77.256 0l11.882 10.424 84.156 38.572-42.078 212.143s56.104 192.858 35.065 203.377-52.598 40.325-59.611 22.792-48.31-467.928-29.415-487.309z" fill="#3f3d56"/><path d="M967.104 558.054s-78.896-33.312-80.65-3.506 89.416 50.844 89.416 42.078-8.766-38.572-8.766-38.572zm-192.858-12.273s91.169 68.377 56.104 85.909-80.65-61.364-80.65-61.364z" fill="#ffb8b8"/><path d="M901.425 119.268c.59-1.248 1.879-2.013 3.257-1.933-28.093-1.68-57.685 1.594-81.188 17.075-6.582 4.336-12.729 9.638-20.223 12.081l6.083 4.77-7.268 2.215 10.695 6.913a9.27 9.27 0 0 1-8.829 2.958c4.648 1.358 8.07 5.494 9.809 10.014s2.051 9.442 2.344 14.276c1.797-6.974 9.408-11.08 16.598-11.497s14.202 1.955 21.199 3.66a117.27 117.27 0 0 0 46.548 1.791c-5.256 10.549-.822 23.131 3.64 34.04l8.909 21.781c4.946.497 8.442-4.421 12.169-7.712 3.396-2.999-10.125 23.376-8.032 22.41 2.72-1.255 31.421-32.944 32.765-35.621 6.132-12.214 9.811-25.838 9.258-39.493s-5.55-27.318-14.963-37.227c-6.39-6.727-15.231-7.905-21.746-13.496-2.564-2.201-2.573-3.92-6.097-5.203-1.17-.426-14.735-2.231-14.929-1.802z" fill="#2f2e41"/><path d="M737.428 314.352l-12.273-5.26-98.182 161.299s-17.533 42.078 14.026 61.364 105.195 77.143 105.195 77.143l42.078-64.87s-85.909-40.325-80.65-56.104 33.312-57.857 33.312-57.857zm254.221 8.766l22.792 3.507s94.676 185.845 71.883 220.91S970.61 631.69 970.61 631.69s-1.753-57.857-17.533-78.896l54.351-21.039-29.805-115.715z" fill="#3f3d56"/><defs ><path id="B" d="M241.537 482.208a349.11 349.11 0 0 1 90.156-16.073 282.15 282.15 0 0 1 45.97 1.799 287.56 287.56 0 0 1 44.616 9.552c14.421 4.175 28.642 8.998 43.014 13.333a401.18 401.18 0 0 0 44.455 10.848c14.934 2.702 30.019 4.5 45.17 5.384 15.003.872 30.153 1.042 45.114-.556 13.975-1.346 27.662-4.815 40.59-10.289a123.97 123.97 0 0 0 33.011-21.173q3.672-3.278 7.066-6.845c1.335-1.395-.784-3.52-2.121-2.121-19.125 19.992-44.262 32.388-71.527 36.528-14.853 2.255-29.99 2.386-44.973 1.804a370.06 370.06 0 0 1-45.715-4.619 382.03 382.03 0 0 1-44.275-10.078c-14.288-4.139-28.381-8.912-42.619-13.215a320.73 320.73 0 0 0-43.879-10.454 275.94 275.94 0 0 0-45.019-3.125 344.2 344.2 0 0 0-88.973 13.176q-5.455 1.532-10.859 3.233c-1.836.576-1.052 3.473.798 2.893z"/></defs></svg>